<svg width="22" height="22" viewBox="0 0 22 22" fill="none" xmlns="http://www.w3.org/2000/svg">
<path d="M10.582 0C13.3885 0 16.0801 1.11489 18.0646 3.0994C20.0491 5.08391 21.164 7.77548 21.164 10.582C21.164 13.3885 20.0491 16.0801 18.0646 18.0646C16.0801 20.0491 13.3885 21.164 10.582 21.164C7.77548 21.164 5.08391 20.0491 3.0994 18.0646C1.11489 16.0801 0 13.3885 0 10.582C0 7.77548 1.11489 5.08391 3.0994 3.0994C5.08391 1.11489 7.77548 0 10.582 0ZM16.902 16.914C17.7343 16.0852 18.3943 15.0999 18.8439 14.0149C19.2936 12.9298 19.524 11.7665 19.522 10.592V10.108L19.082 10.11H13.192V11.098H18.516L18.514 11.128C18.374 13.1374 17.4783 15.0193 16.0071 16.3952C14.5359 17.771 12.5983 18.5388 10.584 18.544C9.5394 18.5466 8.50465 18.342 7.53964 17.9421C6.57462 17.5421 5.69851 16.9548 4.962 16.214C4.22158 15.4773 3.63459 14.6011 3.235 13.6361C2.8354 12.6711 2.63113 11.6365 2.634 10.592C2.634 8.47 3.462 6.474 4.962 4.972C5.69844 4.23182 6.5743 3.64497 7.53894 3.24538C8.50359 2.84579 9.53787 2.64139 10.582 2.644L11.086 2.65V1.66L10.584 1.654C8.21412 1.65665 5.94204 2.59911 4.26609 4.27468C2.59015 5.95025 1.64718 8.22212 1.644 10.592C1.644 12.98 2.574 15.224 4.262 16.914C5.08987 17.7469 6.07472 18.4074 7.15955 18.8571C8.24438 19.3068 9.40765 19.5369 10.582 19.534C11.757 19.5374 12.921 19.3076 14.0066 18.8579C15.0922 18.4081 16.0777 17.7474 16.906 16.914M11.086 14.32V5.87H10.08V15.31H13.192V14.32H11.086ZM8.556 7.216C8.55679 6.94835 8.47812 6.68648 8.32996 6.46357C8.18179 6.24067 7.97079 6.06676 7.7237 5.96388C7.47661 5.86099 7.20454 5.83376 6.94196 5.88564C6.67938 5.93752 6.43811 6.06616 6.24871 6.25528C6.05931 6.44441 5.9303 6.68549 5.87803 6.94799C5.82577 7.21049 5.85259 7.4826 5.95511 7.72985C6.05763 7.97709 6.23123 8.18834 6.45391 8.33684C6.67659 8.48534 6.93834 8.56439 7.206 8.564C7.56353 8.56347 7.9063 8.42134 8.15931 8.16872C8.41231 7.91609 8.55494 7.57353 8.556 7.216Z" fill="#E30084"/>
</svg>
