<svg width="25" height="17" viewBox="0 0 25 17" fill="none" xmlns="http://www.w3.org/2000/svg">
<path d="M30.2542 11.8383H37.0667V13.975H26.9687V3.00255H30.2542V11.8383ZM44.2958 9.79163H46.9708V11.7114C46.4792 11.856 45.5167 12.0006 44.6021 12.0006C41.6437 12.0006 40.6583 10.8423 40.6583 8.48875C40.6583 6.24286 41.5958 4.92071 44.5521 4.92071C46.2 4.92071 47.1354 5.31913 47.9104 6.08061L49.9562 4.62994C48.7062 3.25638 46.5271 2.84029 44.4792 2.84029C39.8792 2.84029 37.4625 4.77613 37.4625 8.46948C37.4625 12.1452 39.6437 14.1372 44.4583 14.1372C46.6667 14.1372 48.825 13.7035 50 13.0689V7.74494H44.2937L44.2958 9.79163ZM11.0229 0C13.9464 0 16.7501 0.895533 18.8173 2.48959C20.8845 4.08365 22.0458 6.24566 22.0458 8.5C22.0458 10.7543 20.8845 12.9163 18.8173 14.5104C16.7501 16.1045 13.9464 17 11.0229 17C8.09946 17 5.29574 16.1045 3.22854 14.5104C1.16134 12.9163 0 10.7543 0 8.5C0 6.24566 1.16134 4.08365 3.22854 2.48959C5.29574 0.895533 8.09946 0 11.0229 0ZM17.6062 13.5862C18.4732 12.9205 19.1607 12.129 19.6291 11.2575C20.0975 10.3859 20.3375 9.45147 20.3354 8.50803V8.11926L19.8771 8.12086H13.7417V8.91448H19.2875L19.2854 8.93857C19.1396 10.5526 18.2066 12.0643 16.6741 13.1694C15.1416 14.2746 13.1232 14.8913 11.025 14.8955C9.93687 14.8976 8.85901 14.7332 7.85379 14.412C6.84857 14.0907 5.93595 13.6189 5.16875 13.0239C4.39748 12.4322 3.78603 11.7284 3.36979 10.9532C2.95354 10.1781 2.74076 9.347 2.74375 8.50803C2.74375 6.80353 3.60625 5.20024 5.16875 3.99376C5.93587 3.39921 6.84823 2.92782 7.85307 2.60685C8.8579 2.28588 9.93528 2.1217 11.0229 2.1238L11.5479 2.12861V1.3334L11.025 1.32858C8.55638 1.3307 6.18962 2.08774 4.44385 3.43364C2.69807 4.77954 1.71581 6.60443 1.7125 8.50803C1.7125 10.4262 2.68125 12.2287 4.43958 13.5862C5.30194 14.2552 6.32783 14.7857 7.45787 15.147C8.5879 15.5082 9.79963 15.693 11.0229 15.6907C12.2469 15.6934 13.4594 15.5088 14.5902 15.1476C15.721 14.7863 16.7476 14.2556 17.6104 13.5862M11.5479 11.5026V4.71508H10.5V12.2978H13.7417V11.5026H11.5479ZM8.9125 5.79626C8.91332 5.58126 8.83138 5.37092 8.67704 5.19187C8.5227 5.01282 8.30291 4.87313 8.04552 4.79049C7.78814 4.70785 7.50473 4.68597 7.23121 4.72764C6.95769 4.76931 6.70636 4.87265 6.50907 5.02456C6.31178 5.17647 6.1774 5.37012 6.12295 5.58098C6.06851 5.79183 6.09645 6.01041 6.20324 6.20901C6.31003 6.4076 6.49086 6.57729 6.72282 6.69657C6.95479 6.81585 7.22744 6.87936 7.50625 6.87904C7.87868 6.87862 8.23573 6.76445 8.49928 6.56153C8.76282 6.3586 8.9114 6.08345 8.9125 5.79626Z" fill="#E30084"/>
</svg>
